<svg width="192" height="192" viewBox="0 0 192 192" fill="none" xmlns="http://www.w3.org/2000/svg">
<path d="M81.6302 18.9855C98.5885 38.444 46.393 51.6602 22.4472 37.0644C12.4692 30.8461 17.0585 18.8295 41.2613 12.2994C53.3734 8.95632 70.3317 5.91718 81.6302 18.9855Z" fill="black"/>
<path d="M188.384 10.4239C206.834 31.6059 149.985 45.9978 123.926 30.1063C113.063 23.3282 118.052 10.2599 144.432 3.14596C157.607 -0.497014 176.065 -3.79608 188.384 10.4239Z" fill="black"/>
<path fill-rule="evenodd" clip-rule="evenodd" d="M79.2113 191.497C117.824 193.972 158.015 187.226 173.539 173.294C186.664 161.605 175.922 157.558 160.798 166.996C128.966 187.454 95.9341 178.236 82.0091 157.558L85.5921 156.886C152.84 141.827 195.022 100.926 168.364 77.7768C131.742 45.8619 17.1377 74.4018 2.80585 119.129C-10.3269 160.481 23.8967 188.126 79.2113 191.497ZM120.607 80.0282C132.148 90.3653 118.223 126.999 76.4339 143.63C75.242 138.456 75.242 132.841 76.0343 126.999C84.3921 86.0945 108.274 69.2432 120.607 80.0282Z" fill="black"/>
</svg>
