<svg width="512" height="512" viewBox="0 0 512 512" fill="none" xmlns="http://www.w3.org/2000/svg">
<path d="M217.68 50.6279C262.903 102.517 123.715 137.761 59.8592 98.8383C33.2511 82.2563 45.4893 50.2121 110.03 32.7983C142.329 23.8835 187.551 15.7791 217.68 50.6279Z" fill="black"/>
<path d="M502.356 27.7971C551.557 84.2824 399.959 122.661 330.47 80.2835C301.502 62.2086 314.806 27.3598 385.151 8.38921C420.286 -1.32537 469.506 -10.1229 502.356 27.7971Z" fill="black"/>
<path fill-rule="evenodd" clip-rule="evenodd" d="M211.23 510.658C314.198 517.258 421.373 499.269 462.77 462.117C497.771 430.947 469.127 420.155 428.796 445.322C343.909 499.877 255.824 475.297 218.691 420.155L228.245 418.364C407.574 378.205 520.059 269.137 448.971 207.405C351.313 122.298 45.7004 198.405 7.48227 317.678C-27.5384 427.95 63.7247 501.668 211.23 510.658ZM321.619 213.409C352.395 240.974 315.262 338.664 203.824 383.014C200.645 369.215 200.645 354.243 202.758 338.664C225.046 229.585 288.73 184.649 321.619 213.409Z" fill="black"/>
</svg>
