<svg width="180" height="180" viewBox="0 0 180 180" fill="none" xmlns="http://www.w3.org/2000/svg">
<path d="M76.5283 17.7989C92.4267 36.0412 43.4935 48.4315 21.0442 34.7478C11.6899 28.9182 15.9923 17.6527 38.6824 11.5307C50.0375 8.39655 65.936 5.54735 76.5283 17.7989Z" fill="black"/>
<path d="M176.61 9.7724C193.907 29.6305 140.611 43.123 116.181 28.2247C105.997 21.8702 110.674 9.6187 135.405 2.94933C147.757 -0.46595 165.061 -3.55882 176.61 9.7724Z" fill="black"/>
<path fill-rule="evenodd" clip-rule="evenodd" d="M74.2606 179.528C110.46 181.849 148.139 175.524 162.692 162.463C174.998 151.505 164.927 147.711 150.748 156.558C120.905 175.738 89.9382 167.097 76.8835 147.711L80.2426 147.081C143.288 132.963 182.833 94.6184 157.841 72.9158C123.508 42.9955 16.0666 69.7517 2.63049 111.684C-9.68146 150.451 22.4032 176.368 74.2606 179.528ZM113.069 75.0264C123.889 84.7174 110.834 119.061 71.6568 134.653C70.5394 129.802 70.5394 124.539 71.2821 119.061C79.1176 80.7136 101.507 64.9155 113.069 75.0264Z" fill="black"/>
</svg>
