<svg width="152" height="152" viewBox="0 0 152 152" fill="none" xmlns="http://www.w3.org/2000/svg">
<path d="M64.6239 15.0302C78.0493 30.4348 36.7278 40.8977 17.7707 29.3426C9.87143 24.4198 13.5046 14.9067 32.6652 9.737C42.2539 7.09042 55.6793 4.68443 64.6239 15.0302Z" fill="black"/>
<path d="M149.137 8.25225C163.743 25.0213 118.738 36.4149 98.1082 23.8342C89.5083 18.4682 93.4579 8.12245 114.342 2.49055C124.772 -0.393469 139.384 -3.00523 149.137 8.25225Z" fill="black"/>
<path fill-rule="evenodd" clip-rule="evenodd" d="M62.7089 151.602C93.2776 153.561 125.095 148.22 137.385 137.191C147.776 127.937 139.272 124.734 127.299 132.205C102.098 148.401 75.9478 141.104 64.9239 124.734L67.7604 124.202C120.999 112.279 154.392 79.9 133.288 61.5733C104.296 36.3073 13.5673 58.9014 2.2213 94.3106C-8.17545 127.048 18.9183 148.933 62.7089 151.602ZM95.4806 63.3557C104.617 71.5392 93.5933 100.541 60.5102 113.707C59.5666 109.611 59.5666 105.166 60.1938 100.541C66.8104 68.1581 85.7167 54.8176 95.4806 63.3557Z" fill="black"/>
</svg>
