<svg width="161" height="67" viewBox="0 0 161 67" fill="none" xmlns="http://www.w3.org/2000/svg">
<path fill-rule="evenodd" clip-rule="evenodd" d="M49.0074 24.828C52.6639 28.7969 60.6239 25.1867 58.0314 19.8933C56.3004 16.3397 53.7156 17.1684 51.8709 18.082C48.1774 19.8662 47.483 23.1351 49.0074 24.828ZM43.0775 22.0553C45.4603 26.918 38.1519 30.2333 34.7918 26.588C33.3916 25.035 34.0304 22.0291 37.4191 20.3913C39.1149 19.5529 41.4899 18.7896 43.0775 22.0553ZM158.948 50.2645C157.728 50.4254 156.455 50.5365 155.234 50.6431L155.192 50.6468L155.192 50.7028C152.801 68.0701 129.032 70.9706 128.422 57.3394C128.144 51.1728 140.004 49.3731 151.807 48.2185C152.009 42.8115 148.236 44.029 143.654 45.5079C138.837 47.0624 133.125 48.9058 130.193 43.6479C125.161 34.63 144.8 25.6894 146.898 27.5224C153.259 33.0751 150.39 34.1088 145.719 35.7915L145.531 35.8593C136.046 39.2827 139.746 39.9745 141.025 39.5917C148.591 37.328 155.39 38.5315 155.349 47.8885C155.964 47.8366 156.566 47.7963 157.162 47.7564L157.163 47.7564C157.815 47.7127 158.46 47.6696 159.105 47.6123C161.411 47.394 161.576 50.0438 158.948 50.2645ZM151.435 51.0311C142.313 52.0719 134.426 53.491 135.29 56.4088C137.014 61.9793 148.876 63.2077 151.435 51.0311ZM118.78 34.1769C117.973 39.8281 118.002 45.829 118.684 45.8651C119.018 45.8836 120.988 45.5158 121.621 44.354C122.229 43.2355 122.794 41.6956 123.386 40.0815L123.386 40.0814L123.386 40.0813L123.386 40.0813L123.386 40.0812L123.386 40.0811L123.386 40.0809C124.58 36.8295 125.883 33.2766 127.87 32.2582C130.71 30.8032 119.775 27.2245 118.78 34.1769ZM29.9126 62.7379C22.0011 68.087 15.6995 66.9169 17.6854 51.9071C19.1201 41.001 16.7212 40.3874 14.5501 42.4695C11.7089 45.1705 9.93579 52.199 9.88919 58.888C10.1497 60.4948 10.487 62.0881 10.8999 63.6626C11.2362 65.2921 5.99757 66.9845 2.92734 64.6848C1.86823 63.9013 1.02009 55.9775 1.00501 45.2435C0.992602 36.4195 2.15507 30.3469 3.21367 30.0654C11.2396 27.8631 12.5276 31.4003 10.8079 38.0357C10.1239 40.6339 9.66097 43.2854 9.42402 45.9617C11.0905 41.2953 13.4831 37.471 16.2127 35.7791C23.6222 31.1047 29.8142 33.287 28.6563 42.5626C26.6726 59.1454 26.5087 61.3927 28.2909 60.0982C30.5197 58.521 31.9726 61.331 29.9126 62.7379ZM42.7991 65.1958C48.21 65.8072 53.8386 64.1123 56.0087 60.6252C57.8436 57.6996 56.3371 56.6897 54.2215 59.0527C49.7687 64.175 45.1374 61.8765 43.1792 56.7082L43.6809 56.5395C53.0976 52.7603 58.9932 42.524 55.2501 36.7402C50.1079 28.7665 34.0609 35.926 32.0687 47.1138C30.2432 57.4574 35.0479 64.3637 42.7991 65.1958ZM42.3933 53.2263C48.2424 49.0591 50.1805 39.8954 48.5599 37.3127C46.8281 34.6181 43.488 38.8368 42.3314 49.0674C42.2225 50.5286 42.2244 51.9326 42.3933 53.2263ZM78.1383 51.0551C80.2003 50.3772 82.5037 48.4969 84.0971 45.9877C84.5432 45.2841 84.9183 44.6515 85.4319 43.0058C85.3698 43.205 85.3936 43.1142 85.4527 42.8891C85.56 42.4799 85.7839 41.6269 85.8195 41.2643C85.8194 41.2083 85.875 40.9252 85.9309 40.8151C87.1462 33.9564 82.9048 30.0834 77.0529 33.0146C73.7662 34.6482 69.7049 40.8379 67.2613 47.5294C67.8692 43.9305 68.9234 40.501 70.0897 37.1264C72.0883 31.1666 68.349 28.1368 61.9395 29.8888C60.8799 30.1713 58.9399 37.9861 58.9523 46.81C58.9674 57.544 59.534 63.7252 60.5942 64.5118C63.6635 66.8674 69.125 65.1178 68.5658 63.5446C68.3489 62.947 68.1845 62.3465 68.0209 61.7486L68.0052 61.6913C68.005 61.5223 68.0047 61.3533 67.9495 61.1854C66.8787 54.2159 70.9371 44.5462 74.2785 41.9555C75.1694 41.2232 76.3961 41.7275 76.5668 43.6383C73.8367 44.9911 72.9481 47.3534 72.9495 48.3644C72.9533 51.1184 75.7413 51.7885 78.1383 51.0551Z" fill="black"/>
<path fill-rule="evenodd" clip-rule="evenodd" d="M114.207 27.1611C113.726 29.6539 113.354 32.1666 113.092 34.6921C112.033 44.7521 112.48 53.688 113.705 57.6781C114.431 59.8151 117.162 62.6241 119.783 59.7011C122.626 56.4981 125.75 58.3521 121.957 62.1171C119.617 64.4221 115.268 65.995 110.918 65.5451C107.795 65.1521 105.9 63.1301 104.784 60.0401C104.34 60.938 103.837 61.7251 103.224 62.3421C101.105 64.5351 98.539 65.772 95.25 65.4341C88.613 64.7041 84.712 57.5111 86.551 47.2811C88.503 36.4901 97.87 32.5561 103.279 35.4241C103.391 34.0751 103.502 32.7251 103.614 31.3201C103.642 31.1796 103.655 31.0391 103.669 30.8986C103.683 30.7581 103.697 30.6176 103.724 30.4771C102.079 30.8388 100.424 31.1575 98.762 31.4331C74.787 35.4231 83.04 15.8641 88.894 10.7501C95.53 5.01705 96.254 8.89505 94.191 10.1881C90.511 12.5481 88.894 26.0931 99.432 26.0931C101.161 26.0931 102.778 25.9811 104.394 25.8121C107.685 7.49005 117.665 -1.39095 125.75 1.53205C134.726 4.79205 133.779 19.0671 114.207 27.1611ZM103.279 51.5541C103.055 48.0121 103.055 44.0221 103.112 39.9181C103.112 39.6576 103.127 39.3975 103.141 39.145C103.155 38.9068 103.168 38.6755 103.168 38.4571C99.822 36.9391 96.533 42.1101 95.695 49.2491C94.749 57.6221 98.483 62.0621 100.603 60.0401C102.22 58.4091 103.056 53.2371 103.279 51.5541ZM127.365 8.38905C125.581 5.74705 119.058 8.95105 115.267 22.7211C124.802 18.1671 128.593 10.2991 127.365 8.38905Z" fill="black"/>
</svg>
